<?xml version="1.0" encoding="utf-8"?>
<!-- Generator: Adobe Illustrator 27.0.0, SVG Export Plug-In . SVG Version: 6.00 Build 0)  -->
<svg version="1.1" id="Layer_1"  xmlns="http://www.w3.org/2000/svg" xmlns:xlink="http://www.w3.org/1999/xlink" x="0px" y="0px"
	 viewBox="0 0 2000 2000"  style="enable-background:new 0 0 2000 2000;" xml:space="preserve">
<style type="text/css">
	.st0{clip-path:url(#SVGID_00000161621560555956427710000006608303387885227681_);}
	.st1{fill:#FFFFFF; stroke:#FFFFFF; opacity:0.4}
</style>
<g>
	<defs>
		<rect id="SVGID_1_" width="2000" height="2000"/>
	</defs>
	<clipPath id="SVGID_00000120531606040839137040000004183400657249537705_">
		<use xlink:href="#SVGID_1_"  style="overflow:visible;"/>
	</clipPath>
	<g style="clip-path:url(#SVGID_00000120531606040839137040000004183400657249537705_);">
		<g>
			<g>
				<path class="st1" d="M2205.92,45.3l-196.27-196.27c-22.36-22.36-53.24-35.14-84.85-35.14c-0.31,0-0.62,0-0.93,0l-338.9,2.7
					c-0.34,0-0.68,0-1.01,0c-34.25,0-67.7-13.84-91.92-38.07l-108.46-108.46l7.07-7.07l108.46,108.46
					c22.36,22.36,53.24,35.14,84.85,35.14c0.31,0,0.62,0,0.93,0l338.9-2.7c0.34,0,0.68,0,1.01,0c34.25,0,67.7,13.84,91.92,38.07
					l196.27,196.27L2205.92,45.3z"/>
			</g>
		</g>
		<g>
			<g>
				<path class="st1" d="M2205.03,122.18L1986.67-96.18c-22.36-22.36-53.24-35.14-84.85-35.14c-0.31,0-0.62,0-0.93,0l-338.9,2.7
					c-0.34,0-0.68,0-1.01,0c-34.25,0-67.7-13.84-91.92-38.07l-58.9-58.9l7.07-7.07l58.9,58.9c22.36,22.36,53.24,35.14,84.85,35.14
					c0.31,0,0.62,0,0.93,0l338.9-2.7c34.59-0.23,68.47,13.6,92.94,38.06l218.36,218.36L2205.03,122.18z"/>
			</g>
		</g>
	</g>
	<g style="clip-path:url(#SVGID_00000120531606040839137040000004183400657249537705_);">
		<g>
			<g>
				<path class="st1" d="M2500.17,807.9l-81.39-81.39c-22.36-22.36-53.24-35.14-84.85-35.14c-0.31,0-0.62,0-0.93,0l-338.9,2.7
					c-34.61,0.23-68.47-13.6-92.94-38.06l-198.04-198.04l7.07-7.07l198.04,198.04c22.36,22.36,53.24,35.14,84.85,35.14
					c0.31,0,0.62,0,0.93,0l338.9-2.7c34.57-0.26,68.47,13.6,92.94,38.06l81.39,81.39L2500.17,807.9z"/>
			</g>
		</g>
		<g>
			<g>
				<path class="st1" d="M2529.33,914.82L2395.8,781.29c-22.58-22.58-53.85-35.38-85.79-35.13l-338.9,2.7
					c-34.61,0.26-68.47-13.6-92.94-38.06L1704,536.61l7.07-7.07l174.18,174.18c22.36,22.36,53.24,35.14,84.85,35.14
					c0.31,0,0.62,0,0.93,0l338.9-2.7c34.62-0.26,68.47,13.6,92.94,38.06l133.53,133.53L2529.33,914.82z"/>
			</g>
		</g>
		<g>
			<g>
				<path class="st1" d="M2527.56,990.81l-154.74-154.74c-22.58-22.58-53.89-35.38-85.79-35.13l-338.9,2.7c-0.34,0-0.68,0-1.01,0
					c-34.25,0-67.7-13.84-91.92-38.07l-152.09-152.09l7.07-7.07l152.09,152.09c22.58,22.58,53.88,35.41,85.79,35.13l338.9-2.7
					c0.34,0,0.68,0,1.01,0c34.25,0,67.7,13.84,91.92,38.07l154.74,154.74L2527.56,990.81z"/>
			</g>
		</g>
		<g>
			<g>
				<path class="st1" d="M2528.45,1069.46l-178.6-178.6c-22.36-22.36-53.24-35.14-84.85-35.14c-0.31,0-0.62,0-0.93,0l-338.9,2.7
					c-0.34,0-0.68,0-1.01,0c-34.25,0-67.7-13.84-91.92-38.07l-129.55-129.55l7.07-7.07l129.55,129.55
					c22.36,22.36,53.24,35.14,84.85,35.14c0.31,0,0.62,0,0.93,0l338.9-2.7c34.63-0.25,68.47,13.6,92.94,38.06l178.6,178.6
					L2528.45,1069.46z"/>
			</g>
		</g>
		<g>
			<g>
				<path class="st1" d="M2524.91,1143.68l-198.04-198.04c-22.36-22.36-53.24-35.14-84.85-35.14c-0.31,0-0.62,0-0.93,0l-338.9,2.7
					c-0.34,0-0.68,0-1.01,0c-34.25,0-67.7-13.84-91.92-38.07l-105.7-105.69l7.07-7.07l105.7,105.69
					c22.58,22.58,53.9,35.41,85.79,35.13l338.9-2.7c34.58-0.25,68.47,13.6,92.94,38.06l198.04,198.04L2524.91,1143.68z"/>
			</g>
		</g>
		<g>
			<g>
				<path class="st1" d="M2526.68,1223.21l-222.78-222.78c-22.36-22.36-53.24-35.14-84.85-35.14c-0.31,0-0.62,0-0.94,0l-338.9,2.7
					c-0.34,0-0.68,0-1.01,0c-34.25,0-67.7-13.84-91.92-38.07l-54-54l7.07-7.07l54,54c22.58,22.58,53.86,35.41,85.79,35.13l338.9-2.7
					c0.34,0,0.68,0,1.01,0c34.25,0,67.7,13.84,91.92,38.07l222.78,222.78L2526.68,1223.21z"/>
			</g>
		</g>
	</g>
	<g style="clip-path:url(#SVGID_00000120531606040839137040000004183400657249537705_);">
		<g>
			<g>
				<path class="st1" d="M1765.86,71.81l-53.12-53.12c-22.58-22.58-53.86-35.42-85.79-35.13l-338.9,2.7c-0.34,0-0.68,0-1.01,0
					c-34.25,0-67.7-13.84-91.92-38.07L996.19-250.72l7.07-7.07l198.92,198.92c22.58,22.58,53.82,35.4,85.79,35.13l338.9-2.7
					c34.57-0.25,68.47,13.6,92.94,38.06l53.12,53.12L1765.86,71.81z"/>
			</g>
		</g>
		<g>
			<g>
				<path class="st1" d="M1818.88,202.59L1689.76,73.48c-22.36-22.36-53.24-35.14-84.85-35.14c-0.31,0-0.62,0-0.93,0l-338.9,2.7
					c-34.61,0.27-68.47-13.6-92.94-38.06L996.07-173.09l7.07-7.07L1179.21-4.08c22.36,22.36,53.24,35.14,84.85,35.14
					c0.31,0,0.62,0,0.93,0l338.9-2.7c34.58-0.25,68.47,13.6,92.94,38.06l129.11,129.11L1818.88,202.59z"/>
			</g>
		</g>
		<g>
			<g>
				<path class="st1" d="M1819.76,281.24l-152.97-152.97c-22.36-22.36-53.24-35.14-84.85-35.14c-0.31,0-0.62,0-0.93,0l-338.9,2.7
					c-0.34,0-0.68,0-1.01,0c-34.25,0-67.7-13.84-91.92-38.07L996.97-94.42l7.07-7.07L1156.24,50.7
					c22.58,22.58,53.84,35.35,85.79,35.13l338.9-2.7c0.34,0,0.68,0,1.01,0c34.25,0,67.7,13.84,91.92,38.07l152.97,152.97
					L1819.76,281.24z"/>
			</g>
		</g>
		<g>
			<g>
				<path class="st1" d="M1818.88,358.12l-175.06-175.06c-22.58-22.58-53.88-35.36-85.79-35.13l-338.9,2.7c-0.34,0-0.68,0-1.01,0
					c-34.25,0-67.7-13.84-91.92-38.07L995.86-17.77l7.07-7.07l130.33,130.33c22.36,22.36,53.24,35.14,84.85,35.14
					c0.31,0,0.62,0,0.93,0l338.9-2.7c0.34,0,0.68,0,1.01,0c34.25,0,67.7,13.84,91.92,38.07l175.06,175.06L1818.88,358.12z"/>
			</g>
		</g>
		<g>
			<g>
				<path class="st1" d="M1817.99,434.99l-197.15-197.15c-22.36-22.36-53.24-35.14-84.85-35.14c-0.31,0-0.62,0-0.93,0l-338.9,2.7
					c-34.59,0.28-68.47-13.6-92.94-38.06L994.75,58.89l7.07-7.07l108.46,108.46c22.36,22.36,53.24,35.14,84.85,35.14
					c0.31,0,0.62,0,0.93,0l338.9-2.7c34.64-0.24,68.47,13.6,92.94,38.06l197.15,197.15L1817.99,434.99z"/>
			</g>
		</g>
		<g>
			<g>
				<path class="st1" d="M1817.11,511.87l-219.24-219.24c-22.58-22.58-53.86-35.41-85.79-35.13l-338.9,2.7c-0.37,0-0.74,0-1.1,0
					c-35.31,0-69.05-13.52-92.72-37.18l7.07-7.07c21.8,21.8,52.97,34.25,85.64,34.25c0.34,0,0.68,0,1.03,0l338.9-2.7
					c0.34,0,0.68,0,1.01,0c34.25,0,67.7,13.84,91.92,38.07l219.24,219.24L1817.11,511.87z"/>
			</g>
		</g>
	</g>
	<g style="clip-path:url(#SVGID_00000120531606040839137040000004183400657249537705_);">
		<g>
			<g>
				<path class="st1" d="M2103.41,1188.75l-73.44-73.44c-22.36-22.36-53.24-35.14-84.85-35.14c-0.31,0-0.62,0-0.93,0l-338.9,2.7
					c-0.34,0-0.68,0-1.01,0c-34.24,0-67.7-13.84-91.92-38.07l-194.5-194.5l7.07-7.07l194.5,194.5
					c22.36,22.36,53.24,35.14,84.85,35.14c0.31,0,0.62,0,0.94,0l338.9-2.7c34.62-0.31,68.47,13.6,92.94,38.06l73.44,73.44
					L2103.41,1188.75z"/>
			</g>
		</g>
		<g>
			<g>
				<path class="st1" d="M2142.26,1305.36L2007,1170.09c-22.36-22.36-53.24-35.14-84.85-35.14c-0.31,0-0.62,0-0.93,0l-338.9,2.7
					c-0.34,0-0.68,0-1.01,0c-34.25,0-67.7-13.84-91.92-38.07l-172.41-172.41l7.07-7.07l172.41,172.41
					c22.58,22.58,53.87,35.39,85.79,35.13l338.9-2.7c34.57-0.26,68.47,13.6,92.94,38.06l135.26,135.26L2142.26,1305.36z"/>
			</g>
		</g>
		<g>
			<g>
				<path class="st1" d="M2139.46,1380.32l-155.44-155.44c-22.36-22.36-53.24-35.14-84.85-35.14c-0.31,0-0.62,0-0.93,0l-338.9,2.7
					c-34.61,0.32-68.47-13.6-92.94-38.06l-149.44-149.44l7.07-7.07l149.44,149.44c22.36,22.36,53.24,35.14,84.85,35.14
					c0.31,0,0.62,0,0.93,0l338.9-2.7c34.63-0.25,68.47,13.6,92.94,38.06l155.44,155.44L2139.46,1380.32z"/>
			</g>
		</g>
		<g>
			<g>
				<path class="st1" d="M2138.76,1457.38l-177.71-177.71c-22.36-22.36-53.24-35.14-84.85-35.14c-0.31,0-0.62,0-0.93,0l-338.9,2.7
					c-0.34,0-0.68,0-1.02,0c-34.24,0-67.69-13.84-91.92-38.07l-127.79-127.79l7.07-7.07l127.79,127.79
					c22.36,22.36,53.24,35.14,84.85,35.14c0.31,0,0.62,0,0.94,0l338.9-2.7c0.34,0,0.68,0,1.01,0c34.25,0,67.7,13.84,91.92,38.07
					l177.71,177.71L2138.76,1457.38z"/>
			</g>
		</g>
		<g>
			<g>
				<path class="st1" d="M2136.11,1532.49l-198.04-198.04c-22.36-22.36-53.24-35.14-84.85-35.14c-0.31,0-0.62,0-0.93,0l-338.9,2.7
					c-0.34,0-0.68,0-1.01,0c-34.25,0-67.7-13.84-91.92-38.07l-105.69-105.69l7.07-7.07l105.69,105.69
					c22.36,22.36,53.24,35.14,84.85,35.14c0.31,0,0.62,0,0.93,0l338.9-2.7c0.34,0,0.68,0,1.01,0c34.25,0,67.7,13.84,91.92,38.07
					l198.04,198.04L2136.11,1532.49z"/>
			</g>
		</g>
		<g>
			<g>
				<path class="st1" d="M2137.87,1612.02l-222.78-222.78c-22.36-22.36-53.24-35.14-84.85-35.14c-0.31,0-0.62,0-0.94,0l-338.9,2.7
					c-0.37,0-0.74,0-1.1,0c-35.32,0-69.05-13.52-92.72-37.18l7.07-7.07c21.8,21.8,52.97,34.25,85.65,34.25c0.34,0,0.68,0,1.02,0
					l338.9-2.7c34.61-0.28,68.47,13.6,92.94,38.06l222.78,222.78L2137.87,1612.02z"/>
			</g>
		</g>
	</g>
	<g style="clip-path:url(#SVGID_00000120531606040839137040000004183400657249537705_);">
		<g>
			<g>
				<path class="st1" d="M1323.05,408.39c-23.25-23.25-53.05-36.02-84.01-36.02c-0.3,0-0.6,0-0.9,0l-338.9,2.7
					c-34.63,0.25-68.47-13.6-92.94-38.06L607.39,138.09l7.07-7.07l198.92,198.92c22.58,22.58,53.87,35.35,85.79,35.13l338.9-2.7
					c0.33,0,0.65,0,0.98,0c33.62,0,65.93,13.81,91.07,38.95L1323.05,408.39z"/>
			</g>
		</g>
		<g>
			<g>
				<path class="st1" d="M1430.07,591.4l-129.11-129.11c-22.36-22.36-53.24-35.14-84.85-35.14c-0.31,0-0.62,0-0.93,0l-338.9,2.7
					c-0.34,0-0.68,0-1.01,0c-34.25,0-67.7-13.84-91.93-38.07L607.26,215.72l7.07-7.07L790.4,384.72
					c22.58,22.58,53.84,35.39,85.79,35.13l338.9-2.7c34.61-0.28,68.47,13.6,92.94,38.06l129.11,129.11L1430.07,591.4z"/>
			</g>
		</g>
		<g>
			<g>
				<path class="st1" d="M1430.95,670.05l-152.97-152.97c-22.58-22.58-53.88-35.36-85.79-35.13l-338.9,2.7c-0.34,0-0.68,0-1.01,0
					c-34.25,0-67.7-13.84-91.92-38.07L607.28,293.5l7.07-7.07l153.08,153.08c22.36,22.36,53.24,35.14,84.85,35.14
					c0.31,0,0.62,0,0.94,0l338.9-2.7c0.34,0,0.68,0,1.01,0c34.25,0,67.7,13.84,91.92,38.07l152.97,152.97L1430.95,670.05z"/>
			</g>
		</g>
		<g>
			<g>
				<path class="st1" d="M1430.07,746.92l-175.06-175.06c-22.58-22.58-53.82-35.36-85.79-35.13l-338.9,2.7c-0.34,0-0.68,0-1.01,0
					c-34.25,0-67.7-13.84-91.92-38.07L606.17,370.16l7.07-7.07L744.45,494.3c22.36,22.36,53.24,35.14,84.85,35.14
					c0.31,0,0.62,0,0.93,0l338.9-2.7c34.65-0.26,68.47,13.6,92.94,38.06l175.06,175.06L1430.07,746.92z"/>
			</g>
		</g>
		<g>
			<g>
				<path class="st1" d="M1429.18,823.8l-197.15-197.15c-22.36-22.36-53.24-35.14-84.85-35.14c-0.31,0-0.62,0-0.93,0l-338.9,2.7
					c-0.34,0-0.68,0-1.01,0c-34.25,0-67.7-13.84-91.92-38.07L605.95,447.69l7.07-7.07l108.46,108.46
					c22.36,22.36,53.24,35.14,84.85,35.14c0.31,0,0.62,0,0.94,0l338.9-2.7c34.57-0.27,68.47,13.6,92.94,38.06l197.15,197.15
					L1429.18,823.8z"/>
			</g>
		</g>
		<g>
			<g>
				<path class="st1" d="M1428.3,900.68l-219.24-219.24c-22.36-22.36-53.24-35.14-84.85-35.14c-0.31,0-0.62,0-0.93,0l-338.9,2.7
					c-37.36,0.28-70.72-12.31-93.92-35.51l7.07-7.07c21.29,21.29,52.14,32.89,86.77,32.58l338.9-2.7c0.34,0,0.68,0,1.01,0
					c34.25,0,67.7,13.84,91.92,38.07l219.24,219.24L1428.3,900.68z"/>
			</g>
		</g>
	</g>
	<g style="clip-path:url(#SVGID_00000120531606040839137040000004183400657249537705_);">
		<g>
			<g>
				<path class="st1" d="M721.38,38.23L548.09-135.06c-22.58-22.58-53.87-35.37-85.79-35.13l-338.9,2.7
					c-34.6,0.27-68.47-13.6-92.94-38.06l-198.92-198.92l7.07-7.07L37.53-212.63c22.58,22.58,53.86,35.39,85.79,35.13l338.9-2.7
					c0.34,0,0.68,0,1.01,0c34.25,0,67.7,13.84,91.93,38.07L728.45,31.16L721.38,38.23z"/>
			</g>
		</g>
		<g>
			<g>
				<path class="st1" d="M721.38,116L525.11-80.27c-22.58-22.58-53.84-35.41-85.79-35.13l-338.9,2.7c-0.34,0-0.68,0-1.01,0
					c-34.25,0-67.7-13.84-91.92-38.07l-198.92-198.92l7.07-7.07L14.56-157.84c22.36,22.36,53.24,35.14,84.85,35.14
					c0.31,0,0.62,0,0.93,0l338.9-2.7c34.59-0.29,68.47,13.6,92.94,38.06l196.27,196.27L721.38,116z"/>
			</g>
		</g>
		<g>
			<g>
				<path class="st1" d="M720.5,192.87L502.13-25.49c-22.58-22.58-53.88-35.41-85.79-35.13l-338.9,2.7c-0.34,0-0.68,0-1.01,0
					c-34.25,0-67.7-13.84-91.92-38.07L-214.41-294.9l7.07-7.07L-8.42-103.05C14.16-80.47,45.42-67.7,77.37-67.92l338.9-2.7
					c34.57-0.25,68.47,13.6,92.94,38.06L727.57,185.8L720.5,192.87z"/>
			</g>
		</g>
	</g>
	<g style="clip-path:url(#SVGID_00000120531606040839137040000004183400657249537705_);">
		<g>
			<g>
				<path class="st1" d="M1696.05,1559l-54.88-54.88c-22.58-22.58-53.83-35.42-85.79-35.13l-338.9,2.7
					c-34.57,0.26-68.47-13.6-92.94-38.06L925.5,1235.58l7.07-7.07l198.04,198.04c22.36,22.36,53.24,35.14,84.85,35.14
					c0.31,0,0.62,0,0.93,0l338.9-2.7c0.34,0,0.68,0,1.01,0c34.24,0,67.7,13.84,91.92,38.07l54.88,54.88L1696.05,1559z"/>
			</g>
		</g>
		<g>
			<g>
				<path class="st1" d="M1750.54,1691.25l-132.35-132.35c-22.36-22.36-53.24-35.14-84.85-35.14c-0.31,0-0.62,0-0.93,0l-338.9,2.7
					c-34.61,0.26-68.47-13.6-92.94-38.06L925.5,1313.34l7.07-7.07l175.06,175.06c22.36,22.36,53.24,35.14,84.85,35.14
					c0.31,0,0.62,0,0.93,0l338.9-2.7c34.58-0.25,68.47,13.6,92.94,38.06l132.35,132.35L1750.54,1691.25z"/>
			</g>
		</g>
		<g>
			<g>
				<path class="st1" d="M1750.83,1769.31l-155.62-155.62c-22.36-22.36-53.24-35.14-84.85-35.14c-0.31,0-0.62,0-0.93,0l-338.9,2.7
					c-0.34,0-0.68,0-1.02,0c-34.24,0-67.69-13.84-91.92-38.07L925.5,1391.11l7.07-7.07l152.09,152.09
					c22.36,22.36,53.24,35.14,84.85,35.14c0.31,0,0.62,0,0.94,0l338.9-2.7c34.58-0.3,68.47,13.6,92.94,38.06l155.62,155.62
					L1750.83,1769.31z"/>
			</g>
		</g>
		<g>
			<g>
				<path class="st1" d="M1749.95,1846.19l-177.71-177.71c-22.58-22.58-53.85-35.41-85.79-35.13l-338.9,2.7c-0.34,0-0.68,0-1.01,0
					c-34.25,0-67.7-13.84-91.92-38.07L923.74,1467.1l7.07-7.07l130.88,130.88c22.36,22.36,53.24,35.14,84.85,35.14
					c0.31,0,0.62,0,0.93,0l338.9-2.7c34.63-0.3,68.47,13.6,92.94,38.06l177.71,177.71L1749.95,1846.19z"/>
			</g>
		</g>
		<g>
			<g>
				<path class="st1" d="M1748.18,1922.18l-198.92-198.92c-22.36-22.36-53.24-35.14-84.85-35.14c-0.31,0-0.62,0-0.93,0l-338.9,2.7
					c-34.55,0.27-68.47-13.6-92.94-38.06l-107.02-107.02l7.07-7.07l107.02,107.02c22.36,22.36,53.24,35.14,84.85,35.14
					c0.31,0,0.62,0,0.93,0l338.9-2.7c34.64-0.25,68.47,13.6,92.94,38.06l198.92,198.92L1748.18,1922.18z"/>
			</g>
		</g>
		<g>
			<g>
				<path class="st1" d="M1748.18,1999.94l-221.9-221.89c-22.36-22.36-53.24-35.14-84.85-35.14c-0.31,0-0.62,0-0.93,0l-338.9,2.7
					c-0.33,0-0.66,0-0.98,0c-33.62,0-65.93-13.81-91.07-38.95l7.07-7.07c23.25,23.25,53.05,36.02,84,36.02c0.3,0,0.6,0,0.9,0
					l338.9-2.7c0.34,0,0.68,0,1.01,0c34.25,0,67.7,13.84,91.92,38.07l221.9,221.89L1748.18,1999.94z"/>
			</g>
		</g>
	</g>
	<g style="clip-path:url(#SVGID_00000120531606040839137040000004183400657249537705_);">
		<g>
			<g>
				<path class="st1" d="M934.34,799.06c-24.45-24.45-54.33-37.89-84.21-37.89c-0.27,0-0.53,0-0.79,0l-338.9,2.7
					c-0.34,0-0.68,0-1.01,0c-34.25,0-67.7-13.84-91.93-38.07L218.58,526.89l7.07-7.07l198.92,198.92
					c22.58,22.58,53.88,35.39,85.79,35.13l338.9-2.7c0.29,0,0.58,0,0.87,0c32.55,0,64.93,14.47,91.28,40.81L934.34,799.06z"/>
			</g>
		</g>
		<g>
			<g>
				<path class="st1" d="M1041.26,980.21L912.15,851.1c-22.36-22.36-53.24-35.14-84.85-35.14c-0.31,0-0.62,0-0.93,0l-338.9,2.7
					c-0.34,0-0.68,0-1.01,0c-34.25,0-67.7-13.84-91.92-38.07L218.45,604.53l7.07-7.07L401.6,773.53
					c22.36,22.36,53.24,35.14,84.85,35.14c0.31,0,0.62,0,0.93,0l338.9-2.7c34.58-0.25,68.47,13.6,92.94,38.06l129.11,129.11
					L1041.26,980.21z"/>
			</g>
		</g>
		<g>
			<g>
				<path class="st1" d="M1042.15,1058.85L889.17,905.88c-22.36-22.36-53.24-35.14-84.85-35.14c-0.31,0-0.62,0-0.93,0l-338.9,2.7
					c-34.63,0.25-68.47-13.6-92.94-38.06L217.59,681.43l7.07-7.07l153.96,153.96c22.58,22.58,53.87,35.37,85.79,35.13l338.9-2.7
					c34.61-0.23,68.47,13.6,92.94,38.06l152.97,152.97L1042.15,1058.85z"/>
			</g>
		</g>
		<g>
			<g>
				<path class="st1" d="M1041.26,1135.73L866.2,960.67c-22.58-22.58-53.85-35.39-85.79-35.13l-338.9,2.7
					c-34.63,0.24-68.47-13.6-92.94-38.06L217.37,758.96l7.07-7.07L355.65,883.1c22.58,22.58,53.81,35.4,85.79,35.13l338.9-2.7
					c34.61-0.27,68.47,13.6,92.94,38.06l175.06,175.06L1041.26,1135.73z"/>
			</g>
		</g>
		<g>
			<g>
				<path class="st1" d="M1040.38,1212.61l-197.15-197.15c-22.36-22.36-53.24-35.14-84.85-35.14c-0.31,0-0.62,0-0.93,0l-338.9,2.7
					c-0.34,0-0.68,0-1.01,0c-34.25,0-67.7-13.84-91.92-38.07L216.26,835.62l7.07-7.07l109.34,109.34
					c22.36,22.36,53.24,35.14,84.85,35.14c0.31,0,0.62,0,0.93,0l338.9-2.7c34.61-0.25,68.47,13.6,92.94,38.06l197.15,197.15
					L1040.38,1212.61z"/>
			</g>
		</g>
		<g>
			<g>
				<path class="st1" d="M1039.49,1289.49l-219.24-219.24c-22.36-22.36-53.24-35.14-84.85-35.14c-0.31,0-0.62,0-0.93,0l-338.9,2.7
					c-0.37,0-0.75,0-1.12,0c-36.46,0-73.28-14.23-96.34-37.28l7.07-7.07c21.46,21.46,56.05,34.64,90.3,34.35l338.9-2.7
					c34.6-0.27,68.47,13.6,92.94,38.06l219.24,219.24L1039.49,1289.49z"/>
			</g>
		</g>
	</g>
	<g style="clip-path:url(#SVGID_00000120531606040839137040000004183400657249537705_);">
		<g>
			<g>
				<path class="st1" d="M226.44,91.16c-22.36-22.36-53.24-35.14-84.85-35.14c-0.31,0-0.62,0-0.94,0l-338.9,2.7
					c-0.34,0-0.68,0-1.01,0c-34.25,0-67.7-13.84-91.92-38.07l-198.92-198.92l7.07-7.07l198.92,198.92
					c22.36,22.36,53.24,35.14,84.85,35.14c0.31,0,0.62,0,0.94,0l338.9-2.7c34.61-0.27,68.47,13.6,92.94,38.06L226.44,91.16z"/>
			</g>
		</g>
		<g>
			<g>
				<path class="st1" d="M333.46,272.4L205.23,144.17c-22.36-22.36-53.24-35.14-84.85-35.14c-0.31,0-0.62,0-0.93,0l-338.9,2.7
					c-0.34,0-0.68,0-1.01,0c-34.25,0-67.7-13.84-91.92-38.07l-198.92-198.92l7.07-7.07l198.92,198.92
					c22.36,22.36,53.24,35.14,84.85,35.14c0.31,0,0.62,0,0.93,0l338.9-2.7c34.62-0.28,68.47,13.6,92.94,38.06l128.23,128.23
					L333.46,272.4z"/>
			</g>
		</g>
		<g>
			<g>
				<path class="st1" d="M334.34,351.05L182.25,198.96c-22.58-22.58-53.89-35.37-85.79-35.13l-338.9,2.7
					c-34.63,0.25-68.47-13.6-92.94-38.06L-534.29-70.45l7.07-7.07l198.92,198.92c22.58,22.58,53.85,35.41,85.79,35.13l338.9-2.7
					c0.34,0,0.68,0,1.01,0c34.25,0,67.7,13.84,91.93,38.07l152.09,152.09L334.34,351.05z"/>
			</g>
		</g>
		<g>
			<g>
				<path class="st1" d="M332.57,427.04L159.28,253.75c-22.58-22.58-53.86-35.41-85.79-35.13l-338.9,2.7
					c-34.6,0.27-68.47-13.6-92.94-38.06L-557.27-15.67l7.07-7.07l198.92,198.92c22.58,22.58,53.86,35.39,85.79,35.13l338.9-2.7
					c34.56-0.26,68.47,13.6,92.94,38.06l173.29,173.29L332.57,427.04z"/>
			</g>
		</g>
		<g>
			<g>
				<path class="st1" d="M332.57,504.8L136.3,308.53c-22.58-22.58-53.87-35.42-85.79-35.13l-338.9,2.7c-0.34,0-0.68,0-1.01,0
					c-34.25,0-67.7-13.84-91.92-38.07L-580.24,39.12l7.07-7.07l198.92,198.92c22.36,22.36,53.24,35.14,84.85,35.14
					c0.31,0,0.62,0,0.93,0l338.9-2.7c34.57-0.25,68.47,13.6,92.94,38.06l196.27,196.27L332.57,504.8z"/>
			</g>
		</g>
		<g>
			<g>
				<path class="st1" d="M331.69,581.68L113.33,363.32c-22.58-22.58-53.85-35.4-85.79-35.13l-338.9,2.7
					c-34.62,0.24-68.47-13.6-92.94-38.06L-603.22,93.9l7.07-7.07l198.92,198.92c22.58,22.58,53.87,35.35,85.79,35.13l338.9-2.7
					c34.6-0.25,68.47,13.6,92.94,38.06l218.36,218.36L331.69,581.68z"/>
			</g>
		</g>
	</g>
	<g style="clip-path:url(#SVGID_00000120531606040839137040000004183400657249537705_);">
		<g>
			<g>
				<path class="st1" d="M1307.24,1947.81l-54.88-54.88c-22.36-22.36-53.24-35.14-84.85-35.14c-0.31,0-0.62,0-0.93,0l-338.9,2.7
					c-0.34,0-0.68,0-1.01,0c-34.25,0-67.7-13.84-91.92-38.07l-195.39-195.39l7.07-7.07l195.39,195.39
					c22.36,22.36,53.24,35.14,84.85,35.14c0.31,0,0.62,0,0.93,0l338.9-2.7c34.62-0.26,68.47,13.6,92.94,38.06l54.88,54.88
					L1307.24,1947.81z"/>
			</g>
		</g>
		<g>
			<g>
				<path class="st1" d="M1361.73,2080.06l-132.35-132.35c-22.36-22.36-53.24-35.14-84.85-35.14c-0.31,0-0.62,0-0.93,0l-338.9,2.7
					c-0.34,0-0.68,0-1.02,0c-34.24,0-67.69-13.84-91.92-38.07L539.35,1704.8l7.07-7.07l172.41,172.41
					c22.36,22.36,53.24,35.14,84.85,35.14c0.31,0,0.62,0,0.94,0l338.9-2.7c34.57-0.25,68.47,13.6,92.94,38.06l132.35,132.35
					L1361.73,2080.06z"/>
			</g>
		</g>
		<g>
			<g>
				<path class="st1" d="M1362.03,2158.12l-155.62-155.62c-22.58-22.58-53.83-35.39-85.79-35.13l-338.9,2.7
					c-34.63,0.26-68.47-13.6-92.94-38.06l-151.2-151.2l7.07-7.07l151.2,151.2c22.36,22.36,53.24,35.14,84.85,35.14
					c0.31,0,0.62,0,0.93,0l338.9-2.7c34.62-0.32,68.47,13.6,92.94,38.06l155.62,155.62L1362.03,2158.12z"/>
			</g>
		</g>
		<g>
			<g>
				<path class="st1" d="M1362.03,2235.88l-178.6-178.6c-22.36-22.36-53.24-35.14-84.85-35.14c-0.31,0-0.62,0-0.93,0l-338.9,2.7
					c-34.61,0.25-68.47-13.6-92.94-38.06L538.02,1859l7.07-7.07l127.79,127.79c22.58,22.58,53.86,35.41,85.79,35.13l338.9-2.7
					c0.34,0,0.68,0,1.01,0c34.25,0,67.7,13.84,91.92,38.07l178.6,178.6L1362.03,2235.88z"/>
			</g>
		</g>
		<g>
			<g>
				<path class="st1" d="M1358.49,2310.1l-198.04-198.04c-22.36-22.36-53.24-35.14-84.85-35.14c-0.31,0-0.62,0-0.93,0l-338.9,2.7
					c-34.57,0.25-68.47-13.6-92.94-38.06l-105.69-105.69l7.07-7.07L649.9,2034.5c22.58,22.58,53.84,35.42,85.79,35.13l338.9-2.7
					c0.34,0,0.68,0,1.01,0c34.25,0,67.7,13.84,91.92,38.07l198.04,198.04L1358.49,2310.1z"/>
			</g>
		</g>
	</g>
	<g style="clip-path:url(#SVGID_00000120531606040839137040000004183400657249537705_);">
		<g>
			<g>
				<path class="st1" d="M599.43,1238.23l-53.12-53.12c-22.36-22.36-53.24-35.14-84.85-35.14c-0.31,0-0.62,0-0.93,0l-338.9,2.7
					c-34.57,0.27-68.47-13.6-92.94-38.06L-170.23,915.7l7.07-7.07l198.92,198.92c22.36,22.36,53.24,35.14,84.85,35.14
					c0.31,0,0.62,0,0.93,0l338.9-2.7c34.58-0.28,68.47,13.6,92.94,38.06l53.12,53.12L599.43,1238.23z"/>
			</g>
		</g>
		<g>
			<g>
				<path class="st1" d="M652.45,1369.01L523.34,1239.9c-22.58-22.58-53.83-35.43-85.79-35.13l-338.9,2.7c-0.34,0-0.68,0-1.01,0
					c-34.25,0-67.7-13.84-91.93-38.07l-176.07-176.07l7.07-7.07l176.07,176.07c22.58,22.58,53.84,35.4,85.79,35.13l338.9-2.7
					c0.34,0,0.68,0,1.01,0c34.25,0,67.7,13.84,91.93,38.07l129.11,129.11L652.45,1369.01z"/>
			</g>
		</g>
		<g>
			<g>
				<path class="st1" d="M651.57,1445.89l-151.2-151.2c-22.36-22.36-53.24-35.14-84.85-35.14c-0.31,0-0.62,0-0.94,0l-338.9,2.7
					c-0.34,0-0.68,0-1.01,0c-34.25,0-67.7-13.84-91.93-38.07l-153.96-153.96l7.07-7.07l153.96,153.96
					c22.58,22.58,53.86,35.38,85.79,35.13l338.9-2.7c0.34,0,0.68,0,1.02,0c34.24,0,67.69,13.84,91.92,38.07l151.2,151.2
					L651.57,1445.89z"/>
			</g>
		</g>
		<g>
			<g>
				<path class="st1" d="M650.69,1522.77l-173.29-173.29c-22.36-22.36-53.24-35.14-84.85-35.14c-0.31,0-0.62,0-0.93,0l-338.9,2.7
					c-34.63,0.28-68.47-13.6-92.94-38.06l-132.09-132.09l7.07-7.07l132.09,132.09c22.58,22.58,53.87,35.43,85.79,35.13l338.9-2.7
					c0.34,0,0.68,0,1.01,0c34.25,0,67.7,13.84,91.92,38.07l173.29,173.29L650.69,1522.77z"/>
			</g>
		</g>
		<g>
			<g>
				<path class="st1" d="M649.8,1599.65l-195.39-195.38c-22.36-22.36-53.24-35.14-84.85-35.14c-0.31,0-0.62,0-0.93,0l-338.9,2.7
					c-0.34,0-0.68,0-1.02,0c-34.24,0-67.69-13.84-91.92-38.07l-110.23-110.23l7.07-7.07l110.23,110.23
					c22.36,22.36,53.24,35.14,84.85,35.14c0.31,0,0.62,0,0.94,0l338.9-2.7c34.62-0.3,68.47,13.6,92.94,38.06l195.39,195.38
					L649.8,1599.65z"/>
			</g>
		</g>
		<g>
			<g>
				<path class="st1" d="M649.8,1677.41l-218.36-218.36c-22.58-22.58-53.82-35.4-85.79-35.13l-338.9,2.7c-0.34,0-0.68,0-1.02,0
					c-34.85,0-69.84-14.22-93.78-38.17l7.07-7.07c22.1,22.1,54.46,35.24,86.71,35.24c0.32,0,0.63,0,0.94,0l338.9-2.7
					c34.59-0.29,68.47,13.6,92.94,38.06l218.36,218.36L649.8,1677.41z"/>
			</g>
		</g>
	</g>
	<g style="clip-path:url(#SVGID_00000120531606040839137040000004183400657249537705_);">
		<g>
			<g>
				<path class="st1" d="M210.63,1627.04l-53.12-53.12c-22.58-22.58-53.91-35.33-85.99-34.91l-340.35,4.14
					c-0.52,0.01-1.04,0.01-1.56,0.01c-34.2,0-67.52-13.74-91.62-37.85l-195.39-195.38l7.07-7.07l195.39,195.38
					c22.58,22.58,53.91,35.32,85.99,34.91l340.35-4.14c34.75-0.37,68.71,13.37,93.18,37.84l53.12,53.12L210.63,1627.04z"/>
			</g>
		</g>
		<g>
			<g>
				<path class="st1" d="M263.32,1758.15l-129.11-129.11c-22.58-22.58-53.93-35.3-85.99-34.91l-340.35,4.14
					c-34.77,0.4-68.71-13.37-93.18-37.84l-171.65-171.65l7.07-7.07l171.65,171.65c22.58,22.58,53.89,35.28,85.99,34.91l340.35-4.14
					c34.75-0.41,68.71,13.37,93.18,37.84l129.11,129.11L263.32,1758.15z"/>
			</g>
		</g>
		<g>
			<g>
				<path class="st1" d="M263.87,1837.12L110.9,1684.15c-22.58-22.58-53.96-35.28-85.99-34.91l-340.35,4.14
					c-0.52,0.01-1.04,0.01-1.56,0.01c-34.2,0-67.52-13.74-91.62-37.85l-150.42-150.42l7.07-7.07l150.42,150.42
					c22.58,22.58,53.96,35.32,85.99,34.91l340.35-4.14c34.74-0.43,68.71,13.37,93.18,37.84l152.97,152.97L263.87,1837.12z"/>
			</g>
		</g>
		<g>
			<g>
				<path class="st1" d="M262.66,1914.33L87.6,1739.27c-22.58-22.58-53.91-35.31-85.99-34.91l-340.35,4.14
					c-0.52,0.01-1.04,0.01-1.56,0.01c-34.2,0-67.52-13.74-91.62-37.85l-127.68-127.68l7.07-7.07l127.68,127.68
					c22.58,22.58,53.92,35.33,85.99,34.91l340.35-4.14c34.73-0.4,68.71,13.37,93.18,37.84l175.06,175.06L262.66,1914.33z"/>
			</g>
		</g>
		<g>
			<g>
				<path class="st1" d="M263.22,1993.3L64.3,1794.38c-22.58-22.58-53.92-35.33-85.99-34.91l-340.35,4.14
					c-34.75,0.37-68.71-13.37-93.18-37.84l-103.16-103.16l7.07-7.07l103.16,103.16c22.58,22.58,53.93,35.29,85.99,34.91l340.35-4.14
					c34.76-0.38,68.71,13.37,93.18,37.84l198.92,198.92L263.22,1993.3z"/>
			</g>
		</g>
		<g>
			<g>
				<path class="st1" d="M262,2070.51L40.99,1849.5c-22.58-22.58-53.9-35.31-85.99-34.91l-340.35,4.14
					c-32.11,0.42-60.87-12.6-87.98-39.71l7.07-7.07c25.1,25.1,51.52,37.16,80.78,36.78l340.35-4.14
					c34.75-0.41,68.71,13.37,93.18,37.84l221.01,221.01L262,2070.51z"/>
			</g>
		</g>
	</g>
	<g style="clip-path:url(#SVGID_00000120531606040839137040000004183400657249537705_);">
		<g>
			<g>
				<path class="st1" d="M1909.01,662.09l-54.88-54.88c-24.46-24.46-38.34-58.34-38.06-92.94l2.7-338.9
					c0.25-31.94-12.55-63.2-35.13-85.79l-219.24-219.24l7.07-7.07L1790.7,82.51c24.46,24.46,38.34,58.34,38.06,92.94l-2.7,338.9
					c-0.25,31.94,12.55,63.2,35.13,85.79l54.88,54.88L1909.01,662.09z"/>
			</g>
		</g>
		<g>
			<g>
				<path class="st1" d="M2016.81,692.14l-107.9-107.9c-24.46-24.46-38.34-58.34-38.06-92.94l2.7-338.9
					c0.25-31.94-12.55-63.2-35.13-85.79l-198.04-198.04l7.07-7.07l198.04,198.04c24.46,24.47,38.34,58.34,38.06,92.94l-2.7,338.9
					c-0.25,31.94,12.55,63.2,35.13,85.79l107.9,107.9L2016.81,692.14z"/>
			</g>
		</g>
		<g>
			<g>
				<path class="st1" d="M2095.46,693.02L1963.7,561.26c-24.47-24.47-38.34-58.34-38.06-92.94l2.7-338.9
					c0.25-31.94-12.55-63.2-35.13-85.79l-175.06-175.06l7.07-7.07l175.06,175.06c24.47,24.46,38.34,58.34,38.06,92.94l-2.7,338.9
					c-0.25,31.93,12.55,63.2,35.13,85.79l131.76,131.76L2095.46,693.02z"/>
			</g>
		</g>
		<g>
			<g>
				<path class="st1" d="M2171.45,691.25l-152.97-152.97c-24.46-24.46-38.34-58.34-38.06-92.94l2.7-338.9
					c0.25-31.94-12.55-63.2-35.13-85.79l-152.97-152.97l7.07-7.07l152.97,152.97c24.46,24.46,38.34,58.34,38.06,92.94l-2.7,338.9
					c-0.25,31.94,12.55,63.2,35.13,85.79l152.97,152.97L2171.45,691.25z"/>
			</g>
		</g>
		<g>
			<g>
				<path class="st1" d="M2249.21,691.25l-175.94-175.95c-24.47-24.46-38.34-58.34-38.06-92.94l2.7-338.9
					c0.25-31.94-12.55-63.2-35.13-85.79l-130-130l7.07-7.07l130,130c24.47,24.47,38.34,58.34,38.06,92.94l-2.7,338.9
					c-0.25,31.94,12.55,63.2,35.13,85.79l175.94,175.95L2249.21,691.25z"/>
			</g>
		</g>
	</g>
	<g style="clip-path:url(#SVGID_00000120531606040839137040000004183400657249537705_);">
		<g>
			<g>
				<path class="st1" d="M1519.32,1051.78l-54.88-54.88c-24.47-24.47-38.34-58.34-38.06-92.94l2.7-338.9
					c0.25-31.94-12.55-63.2-35.13-85.79l-219.24-219.24l7.07-7.07l219.24,219.24c24.46,24.46,38.34,58.34,38.06,92.94l-2.7,338.9
					c-0.25,31.93,12.55,63.2,35.13,85.79l54.88,54.88L1519.32,1051.78z"/>
			</g>
		</g>
		<g>
			<g>
				<path class="st1" d="M1627.12,1081.83l-107.9-107.9c-24.46-24.46-38.34-58.34-38.06-92.94l2.7-338.9
					c0.25-31.93-12.55-63.2-35.13-85.79l-198.04-198.04l7.07-7.07l198.04,198.04c24.47,24.47,38.34,58.34,38.06,92.94l-2.7,338.9
					c-0.25,31.94,12.55,63.2,35.13,85.79l107.9,107.9L1627.12,1081.83z"/>
			</g>
		</g>
		<g>
			<g>
				<path class="st1" d="M1704,1080.94l-130-130c-24.47-24.46-38.34-58.34-38.06-92.94l2.7-338.9c0.25-31.93-12.55-63.2-35.13-85.79
					l-175.06-175.06l7.07-7.07l175.06,175.06c24.47,24.46,38.34,58.34,38.06,92.94l-2.7,338.9c-0.25,31.94,12.55,63.2,35.13,85.79
					l130,130L1704,1080.94z"/>
			</g>
		</g>
		<g>
			<g>
				<path class="st1" d="M1781.76,1080.94l-152.97-152.97c-24.47-24.47-38.34-58.34-38.06-92.94l2.7-338.9
					c0.25-31.94-12.55-63.2-35.13-85.79l-152.97-152.97l7.07-7.07l152.97,152.97c24.47,24.46,38.34,58.34,38.06,92.94l-2.7,338.9
					c-0.25,31.93,12.55,63.2,35.13,85.79l152.97,152.97L1781.76,1080.94z"/>
			</g>
		</g>
		<g>
			<g>
				<path class="st1" d="M1859.52,1080.94L1683.58,905c-24.46-24.46-38.34-58.34-38.06-92.94l2.7-338.9
					c0.25-31.94-12.55-63.2-35.13-85.79l-130-130l7.07-7.07l130,130c24.46,24.46,38.34,58.34,38.06,92.94l-2.7,338.9
					c-0.25,31.93,12.55,63.2,35.13,85.79l175.95,175.95L1859.52,1080.94z"/>
			</g>
		</g>
		<g>
			<g>
				<path class="st1" d="M1934.63,1078.29l-196.27-196.27c-24.46-24.46-38.34-58.34-38.06-92.94l2.7-338.9
					c0.26-33.05-12.22-64.64-34.25-86.67l7.07-7.07c23.91,23.91,37.46,58.11,37.18,93.82l-2.7,338.9
					c-0.25,31.94,12.55,63.2,35.13,85.79l196.27,196.27L1934.63,1078.29z"/>
			</g>
		</g>
	</g>
	<g style="clip-path:url(#SVGID_00000120531606040839137040000004183400657249537705_);">
		<g>
			<g>
				<path class="st1" d="M758.39,289.09c-25.39-25.39-39.22-58.08-38.95-92.05l2.7-338.9c0.25-31.94-12.55-63.2-35.13-85.79
					L467.77-446.89l7.07-7.07l219.24,219.24c24.46,24.46,38.34,58.34,38.06,92.94l-2.7,338.9c-0.25,31.27,12.54,61.43,36.02,84.9
					L758.39,289.09z"/>
			</g>
		</g>
		<g>
			<g>
				<path class="st1" d="M919.32,374.02L812.3,267c-24.46-24.46-38.34-58.34-38.06-92.94l2.7-338.9
					c0.25-31.94-12.55-63.2-35.13-85.79L543.76-448.66l7.07-7.07l198.04,198.04c24.46,24.47,38.34,58.34,38.06,92.94l-2.7,338.9
					c-0.25,31.94,12.55,63.2,35.13,85.79l107.02,107.02L919.32,374.02z"/>
			</g>
		</g>
		<g>
			<g>
				<path class="st1" d="M996.19,373.14L867.08,244.03c-24.46-24.46-38.34-58.34-38.06-92.94l2.7-338.9
					c0.25-31.94-12.55-63.2-35.13-85.79L621.53-448.66l7.07-7.07l175.06,175.06c24.46,24.47,38.34,58.34,38.06,92.94l-2.7,338.9
					c-0.25,31.94,12.55,63.2,35.13,85.79l129.11,129.11L996.19,373.14z"/>
			</g>
		</g>
		<g>
			<g>
				<path class="st1" d="M1073.07,372.26l-151.2-151.2c-24.46-24.46-38.34-58.34-38.06-92.94l2.7-338.9
					c0.25-31.94-12.55-63.2-35.13-85.79L698.4-449.54l7.07-7.07l152.97,152.97c24.46,24.46,38.34,58.34,38.06,92.94l-2.7,338.9
					c-0.25,31.94,12.55,63.2,35.13,85.79l151.2,151.2L1073.07,372.26z"/>
			</g>
		</g>
		<g>
			<g>
				<path class="st1" d="M1150.83,372.26L976.66,198.08c-24.46-24.46-38.34-58.34-38.06-92.94l2.7-338.9
					c0.25-31.94-12.55-63.2-35.13-85.79l-130-130l7.07-7.07l130,130c24.46,24.47,38.34,58.34,38.06,92.94l-2.7,338.9
					c-0.25,31.94,12.55,63.2,35.13,85.79l174.18,174.18L1150.83,372.26z"/>
			</g>
		</g>
		<g>
			<g>
				<path class="st1" d="M1227.71,371.37L1031.44,175.1c-24.47-24.46-38.34-58.34-38.06-92.94l2.7-338.9
					c0.25-31.94-12.55-63.2-35.13-85.79l7.07-7.07c24.46,24.47,38.34,58.34,38.06,92.94l-2.7,338.9
					c-0.25,31.94,12.55,63.2,35.13,85.79l196.27,196.27L1227.71,371.37z"/>
			</g>
		</g>
	</g>
	<g style="clip-path:url(#SVGID_00000120531606040839137040000004183400657249537705_);">
		<g>
			<g>
				<path class="st1" d="M1077.49,1387.57c-25.82-25.82-41.08-60.93-40.81-93.92l2.7-338.9c0.25-31.94-12.55-63.2-35.13-85.79
					l-221.9-221.89l7.07-7.07l221.89,221.89c24.47,24.46,38.34,58.34,38.06,92.94l-2.7,338.9c-0.24,30.37,13.92,62.8,37.88,86.77
					L1077.49,1387.57z"/>
			</g>
		</g>
		<g>
			<g>
				<path class="st1" d="M1236.55,1470.63l-107.02-107.02c-24.47-24.46-38.34-58.34-38.06-92.94l2.7-338.9
					c0.25-31.94-12.55-63.2-35.13-85.79L861,647.95l7.07-7.07l198.04,198.04c24.46,24.46,38.34,58.34,38.06,92.94l-2.7,338.9
					c-0.26,31.93,12.55,63.2,35.13,85.79l107.02,107.02L1236.55,1470.63z"/>
			</g>
		</g>
		<g>
			<g>
				<path class="st1" d="M1313.43,1469.75l-129.11-129.11c-24.46-24.46-38.34-58.34-38.06-92.94l2.7-338.9
					c0.25-31.93-12.55-63.2-35.13-85.79L936.99,646.19l7.07-7.07l176.83,176.83c24.47,24.47,38.34,58.34,38.06,92.94l-2.7,338.9
					c-0.25,31.94,12.55,63.2,35.13,85.79l129.11,129.11L1313.43,1469.75z"/>
			</g>
		</g>
		<g>
			<g>
				<path class="st1" d="M1390.3,1468.87l-151.2-151.2c-24.47-24.47-38.34-58.34-38.06-92.94l2.7-338.9
					c0.25-31.94-12.55-63.2-35.13-85.79L1013.87,645.3l7.07-7.07l154.74,154.74c24.46,24.47,38.34,58.34,38.06,92.94l-2.7,338.9
					c-0.25,31.93,12.55,63.2,35.13,85.79l151.2,151.2L1390.3,1468.87z"/>
			</g>
		</g>
		<g>
			<g>
				<path class="st1" d="M1468.07,1468.87l-174.18-174.18c-24.47-24.46-38.34-58.34-38.06-92.94l2.7-338.9
					c0.25-31.94-12.55-63.2-35.13-85.79l-130.88-130.88l7.07-7.07L1230.46,770c24.47,24.46,38.34,58.34,38.06,92.94l-2.7,338.9
					c-0.25,31.93,12.55,63.2,35.13,85.79l174.18,174.18L1468.07,1468.87z"/>
			</g>
		</g>
		<g>
			<g>
				<path class="st1" d="M1544.94,1467.98l-196.27-196.27c-24.46-24.46-38.34-58.34-38.06-92.94l2.7-338.9
					c0.26-31.93-12.55-63.2-35.13-85.79l7.07-7.07c24.47,24.47,38.34,58.34,38.06,92.94l-2.7,338.9
					c-0.25,31.93,12.55,63.2,35.13,85.79l196.27,196.27L1544.94,1467.98z"/>
			</g>
		</g>
	</g>
	<g style="clip-path:url(#SVGID_00000120531606040839137040000004183400657249537705_);">
		<g>
			<g>
				<path class="st1" d="M369.59,677.9c-25.95-25.95-40.09-58.32-39.83-91.17l2.7-338.9c0.25-31.94-12.55-63.2-35.13-85.79
					L78.08-57.2l7.07-7.07l219.24,219.24c24.46,24.47,38.34,58.34,38.06,92.94l-2.7,338.9c-0.24,30.14,12.86,59.98,36.9,84.02
					L369.59,677.9z"/>
			</g>
		</g>
		<g>
			<g>
				<path class="st1" d="M527.86,761.95L422.61,656.69c-24.46-24.46-38.34-58.34-38.06-92.94l2.7-338.9
					c0.25-31.94-12.55-63.2-35.13-85.79L154.07-58.97l7.07-7.07L359.18,132c24.46,24.46,38.34,58.34,38.06,92.94l-2.7,338.9
					c-0.25,31.94,12.55,63.2,35.13,85.79l105.25,105.25L527.86,761.95z"/>
			</g>
		</g>
		<g>
			<g>
				<path class="st1" d="M605.62,761.95L477.39,633.72c-24.46-24.46-38.34-58.34-38.06-92.94l2.7-338.9
					c0.25-31.94-12.55-63.2-35.13-85.79L230.95-59.85l7.07-7.07l175.95,175.94c24.46,24.47,38.34,58.34,38.06,92.94l-2.7,338.9
					c-0.25,31.94,12.55,63.2,35.13,85.79l128.23,128.23L605.62,761.95z"/>
			</g>
		</g>
		<g>
			<g>
				<path class="st1" d="M682.5,761.06L532.18,610.74c-24.47-24.47-38.34-58.34-38.06-92.94l2.7-338.9
					c0.25-31.94-12.55-63.2-35.13-85.79L307.83-60.73l7.07-7.07L468.75,86.05c24.46,24.47,38.34,58.34,38.06,92.94l-2.7,338.9
					c-0.25,31.94,12.55,63.2,35.13,85.79l150.32,150.32L682.5,761.06z"/>
			</g>
		</g>
		<g>
			<g>
				<path class="st1" d="M760.26,761.06L586.97,587.77c-24.46-24.46-38.34-58.34-38.06-92.94l2.7-338.9
					c0.25-31.94-12.55-63.2-35.13-85.79L385.59-60.73l7.07-7.07L523.54,63.07c24.46,24.46,38.34,58.34,38.06,92.94l-2.7,338.9
					c-0.25,31.94,12.55,63.2,35.13,85.79l173.29,173.29L760.26,761.06z"/>
			</g>
		</g>
		<g>
			<g>
				<path class="st1" d="M838.02,761.06L641.75,564.79c-24.46-24.46-38.34-58.34-38.06-92.94l2.7-338.9
					c0.27-33.72-12.54-66.82-34.25-88.53l7.07-7.07c23.57,23.57,37.47,59.34,37.18,95.69l-2.7,338.9
					c-0.25,31.94,12.55,63.2,35.13,85.79l196.27,196.27L838.02,761.06z"/>
			</g>
		</g>
	</g>
	<g style="clip-path:url(#SVGID_00000120531606040839137040000004183400657249537705_);">
		<g>
			<g>
				<path class="st1" d="M685.93,1773.73c-24.11-24.11-38.34-59.55-38.06-94.8l2.7-338.9c0.25-31.93-12.55-63.2-35.13-85.79
					l-218.36-218.36l7.07-7.07l218.36,218.36c24.46,24.46,38.34,58.34,38.06,92.94l-2.7,338.9c-0.26,32.62,12.87,65.39,35.13,87.65
					L685.93,1773.73z"/>
			</g>
		</g>
		<g>
			<g>
				<path class="st1" d="M850.39,1858.56l-109.67-109.67c-24.46-24.46-38.34-58.34-38.06-92.94l2.7-338.9
					c0.25-31.93-12.55-63.2-35.13-85.79l-195.39-195.38l7.07-7.07l195.39,195.38c24.47,24.46,38.34,58.34,38.06,92.94l-2.7,338.9
					c-0.25,31.94,12.55,63.2,35.13,85.79l109.67,109.67L850.39,1858.56z"/>
			</g>
		</g>
		<g>
			<g>
				<path class="st1" d="M927.27,1857.67l-131.76-131.76c-24.46-24.46-38.34-58.34-38.06-92.94l2.7-338.9
					c0.25-31.94-12.55-63.2-35.13-85.79l-173.29-173.29l7.07-7.07l173.29,173.29c24.46,24.46,38.34,58.34,38.06,92.94l-2.7,338.9
					c-0.25,31.93,12.55,63.2,35.13,85.79l131.76,131.76L927.27,1857.67z"/>
			</g>
		</g>
		<g>
			<g>
				<path class="st1" d="M1003.26,1855.91l-152.97-152.97c-24.46-24.46-38.34-58.34-38.06-92.94l2.7-338.9
					c0.25-31.94-12.55-63.2-35.13-85.79l-151.2-151.2l7.07-7.07l151.2,151.2c24.46,24.46,38.34,58.34,38.06,92.94l-2.7,338.9
					c-0.25,31.94,12.55,63.2,35.13,85.79l152.97,152.97L1003.26,1855.91z"/>
			</g>
		</g>
		<g>
			<g>
				<path class="st1" d="M1081.03,1855.91l-175.95-175.95c-24.46-24.46-38.34-58.34-38.06-92.94l2.7-338.9
					c0.25-31.93-12.55-63.2-35.13-85.79l-130-130l7.07-7.07l130,130c24.46,24.46,38.34,58.34,38.06,92.94l-2.7,338.9
					c-0.25,31.94,12.55,63.2,35.13,85.79l175.94,175.95L1081.03,1855.91z"/>
			</g>
		</g>
		<g>
			<g>
				<path class="st1" d="M1156.14,1853.26l-196.27-196.27c-24.46-24.46-38.34-58.34-38.06-92.94l2.7-338.9
					c0.25-31.93-12.55-63.2-35.13-85.79l7.07-7.07c24.46,24.46,38.34,58.34,38.06,92.94l-2.7,338.9
					c-0.25,31.94,12.55,63.2,35.13,85.79l196.27,196.27L1156.14,1853.26z"/>
			</g>
		</g>
	</g>
	<g style="clip-path:url(#SVGID_00000120531606040839137040000004183400657249537705_);">
		<g>
			<g>
				<path class="st1" d="M138.17,1151.64L32.92,1046.38c-24.46-24.46-38.34-58.34-38.06-92.94l2.7-338.9
					c0.25-31.93-12.55-63.2-35.13-85.79l-200.69-200.69l7.07-7.07l200.69,200.69c24.46,24.47,38.34,58.34,38.06,92.94l-2.7,338.9
					c-0.25,31.94,12.55,63.2,35.13,85.79l105.25,105.25L138.17,1151.64z"/>
			</g>
		</g>
		<g>
			<g>
				<path class="st1" d="M215.05,1150.75L87.7,1023.41c-24.46-24.46-38.34-58.34-38.06-92.94l2.7-338.9
					c0.25-31.93-12.55-63.2-35.13-85.79l-176.83-176.83l7.07-7.07L24.28,498.71c24.46,24.47,38.34,58.34,38.06,92.94l-2.7,338.9
					c-0.25,31.94,12.55,63.2,35.13,85.79l127.34,127.34L215.05,1150.75z"/>
			</g>
		</g>
		<g>
			<g>
				<path class="st1" d="M291.92,1149.87l-149.44-149.44c-24.46-24.46-38.34-58.34-38.06-92.94l2.7-338.9
					c0.25-31.94-12.55-63.2-35.13-85.79L-82.74,328.07l7.07-7.07L79.06,475.74c24.46,24.46,38.34,58.34,38.06,92.94l-2.7,338.9
					c-0.25,31.94,12.55,63.2,35.13,85.79L299,1142.8L291.92,1149.87z"/>
			</g>
		</g>
		<g>
			<g>
				<path class="st1" d="M369.69,1149.87L197.27,977.46c-24.46-24.47-38.34-58.34-38.06-92.94l2.7-338.9
					c0.25-31.93-12.55-63.2-35.13-85.79L-4.98,328.07L2.09,321l131.76,131.76c24.46,24.47,38.34,58.34,38.06,92.94l-2.7,338.9
					c-0.25,31.93,12.55,63.2,35.13,85.79l172.41,172.41L369.69,1149.87z"/>
			</g>
		</g>
		<g>
			<g>
				<path class="st1" d="M446.56,1148.99l-194.5-194.5c-24.46-24.47-38.34-58.34-38.06-92.94l2.7-338.9
					c0.28-35.28-11.56-67.51-32.48-88.44l7.07-7.07c22.81,22.81,35.71,57.65,35.41,95.59l-2.7,338.9
					c-0.25,31.93,12.55,63.2,35.13,85.79l194.5,194.5L446.56,1148.99z"/>
			</g>
		</g>
	</g>
	<g style="clip-path:url(#SVGID_00000120531606040839137040000004183400657249537705_);">
		<g>
			<g>
				<path class="st1" d="M298.89,2164.3c-24.11-24.11-38.34-59.55-38.06-94.8l2.7-338.9c0.25-31.93-12.55-63.2-35.13-85.79
					L9.15,1425.57l7.07-7.07l219.24,219.24c24.46,24.46,38.34,58.34,38.06,92.94l-2.7,338.9c-0.26,32.62,12.87,65.39,35.13,87.65
					L298.89,2164.3z"/>
			</g>
		</g>
		<g>
			<g>
				<path class="st1" d="M461.58,2247.37l-107.9-107.9c-24.46-24.46-38.34-58.34-38.06-92.94l2.7-338.9
					c0.25-31.93-12.55-63.2-35.13-85.79L85.15,1423.8l7.07-7.07l198.04,198.04c24.46,24.47,38.34,58.34,38.06,92.94l-2.7,338.9
					c-0.25,31.94,12.55,63.2,35.13,85.79l107.9,107.9L461.58,2247.37z"/>
			</g>
		</g>
		<g>
			<g>
				<path class="st1" d="M540.23,2248.25l-131.76-131.76c-24.46-24.46-38.34-58.34-38.06-92.94l2.7-338.9
					c0.25-31.94-12.55-63.2-35.13-85.79L162.91,1423.8l7.07-7.07l175.06,175.06c24.46,24.46,38.34,58.34,38.06,92.94l-2.7,338.9
					c-0.25,31.94,12.55,63.2,35.13,85.79l131.76,131.76L540.23,2248.25z"/>
			</g>
		</g>
		<g>
			<g>
				<path class="st1" d="M616.22,2246.48l-152.97-152.97c-24.46-24.47-38.34-58.34-38.06-92.94l2.7-338.9
					c0.25-31.94-12.55-63.2-35.13-85.79l-152.97-152.97l7.07-7.07l152.97,152.97c24.46,24.46,38.34,58.34,38.06,92.94l-2.7,338.9
					c-0.25,31.93,12.55,63.2,35.13,85.79l152.97,152.97L616.22,2246.48z"/>
			</g>
		</g>
		<g>
			<g>
				<path class="st1" d="M693.99,2246.48l-175.94-175.95c-24.46-24.46-38.34-58.34-38.06-92.94l2.7-338.9
					c0.25-31.93-12.55-63.2-35.13-85.79l-130-130l7.07-7.07l130,130c24.46,24.46,38.34,58.34,38.06,92.94l-2.7,338.9
					c-0.25,31.94,12.55,63.2,35.13,85.79l175.94,175.95L693.99,2246.48z"/>
			</g>
		</g>
		<g>
			<g>
				<path class="st1" d="M769.1,2243.83l-196.27-196.27c-24.46-24.46-38.34-58.34-38.06-92.94l2.7-338.9
					c0.25-31.94-12.55-63.2-35.13-85.79l7.07-7.07c24.46,24.46,38.34,58.34,38.06,92.94l-2.7,338.9
					c-0.25,31.94,12.55,63.2,35.13,85.79l196.27,196.27L769.1,2243.83z"/>
			</g>
		</g>
	</g>
	<g style="clip-path:url(#SVGID_00000120531606040839137040000004183400657249537705_);">
		<g>
			<g>
				<path class="st1" d="M60.35,1536.97l-198.04-198.04c-24.47-24.47-38.3-58.38-37.95-93.06l3.42-339.62
					c0.32-32-12.44-63.31-35.02-85.89l7.07-7.07c24.47,24.47,38.3,58.39,37.95,93.06l-3.42,339.62c-0.32,32,12.44,63.31,35.02,85.89
					L67.42,1529.9L60.35,1536.97z"/>
			</g>
		</g>
	</g>
	<g style="clip-path:url(#SVGID_00000120531606040839137040000004183400657249537705_);">
		<g>
			<g>
				<path class="st1" d="M72.78,2636.17l-107.9-107.9c-24.46-24.46-38.34-58.34-38.06-92.94l2.7-338.9
					c0.25-31.94-12.55-63.2-35.13-85.79l-193.62-193.62l7.07-7.07l193.62,193.62c24.46,24.46,38.34,58.34,38.06,92.94l-2.7,338.9
					c-0.25,31.93,12.55,63.2,35.13,85.79l107.9,107.9L72.78,2636.17z"/>
			</g>
		</g>
		<g>
			<g>
				<path class="st1" d="M151.42,2637.06L19.66,2505.29c-24.46-24.46-38.34-58.34-38.06-92.94l2.7-338.9
					c0.25-31.93-12.55-63.2-35.13-85.79l-171.53-171.53l7.07-7.07l171.53,171.53c24.46,24.47,38.34,58.34,38.06,92.94l-2.7,338.9
					c-0.25,31.94,12.55,63.2,35.13,85.79l131.76,131.76L151.42,2637.06z"/>
			</g>
		</g>
		<g>
			<g>
				<path class="st1" d="M227.42,2635.29L74.45,2482.32c-24.46-24.46-38.34-58.34-38.06-92.94l2.7-338.9
					c0.25-31.94-12.55-63.2-35.13-85.79l-150.32-150.32l7.07-7.07l150.32,150.32c24.46,24.46,38.34,58.34,38.06,92.94l-2.7,338.9
					c-0.25,31.94,12.55,63.2,35.13,85.79l152.97,152.97L227.42,2635.29z"/>
			</g>
		</g>
		<g>
			<g>
				<path class="st1" d="M305.18,2635.29l-175.95-175.94c-24.46-24.47-38.34-58.34-38.06-92.94l2.7-338.9
					c0.25-31.94-12.55-63.2-35.13-85.79l-129.11-129.11l7.07-7.07l129.11,129.11c24.46,24.46,38.34,58.34,38.06,92.94l-2.7,338.9
					c-0.25,31.93,12.55,63.2,35.13,85.79l175.95,175.94L305.18,2635.29z"/>
			</g>
		</g>
		<g>
			<g>
				<path class="st1" d="M380.29,2632.64l-196.27-196.27c-24.46-24.46-38.34-58.34-38.06-92.94l2.7-338.9
					c0.25-31.22-11.9-60-35.13-83.23l7.07-7.07c25.17,25.17,38.33,56.43,38.06,90.38l-2.7,338.9c-0.25,31.93,12.55,63.2,35.13,85.79
					l196.27,196.27L380.29,2632.64z"/>
			</g>
		</g>
	</g>
	<g style="clip-path:url(#SVGID_00000120531606040839137040000004183400657249537705_);">
		<g>
			<g>
				<path class="st1" d="M2242.05,219.29c-25.39-25.39-39.22-58.08-38.95-92.05l2.7-338.9c0.25-31.94-12.55-63.2-35.13-85.79
					l-198.92-198.92l7.07-7.07l198.92,198.92c24.47,24.46,38.34,58.34,38.06,92.94l-2.7,338.9c-0.25,31.27,12.54,61.43,36.02,84.9
					L2242.05,219.29z"/>
			</g>
		</g>
	</g>
	<g style="clip-path:url(#SVGID_00000120531606040839137040000004183400657249537705_);">
		<g>
			<g>
				<path class="st1" d="M2228.89,1761.36l-54.88-54.88c-24.46-24.46-38.34-58.34-38.06-92.94l2.7-338.9
					c0.25-31.94-12.55-63.2-35.13-85.79l-221.89-221.89l7.07-7.07l221.89,221.9c24.47,24.46,38.34,58.34,38.06,92.94l-2.7,338.9
					c-0.25,31.94,12.55,63.2,35.13,85.79l54.88,54.88L2228.89,1761.36z"/>
			</g>
		</g>
		<g>
			<g>
				<path class="st1" d="M2336.7,1791.4l-107.9-107.9c-24.47-24.47-38.34-58.34-38.06-92.94l2.7-338.9
					c0.25-31.94-12.55-63.2-35.13-85.79l-198.92-198.92l7.07-7.07l198.92,198.92c24.46,24.46,38.34,58.34,38.06,92.94l-2.7,338.9
					c-0.25,31.93,12.55,63.2,35.13,85.79l107.9,107.9L2336.7,1791.4z"/>
			</g>
		</g>
	</g>
	<g style="clip-path:url(#SVGID_00000120531606040839137040000004183400657249537705_);">
		<g>
			<g>
				<path class="st1" d="M1840.08,2150.16l-54.88-54.88c-24.46-24.46-38.34-58.34-38.06-92.94l2.7-338.9
					c0.25-31.94-12.55-63.2-35.13-85.79l-221.9-221.89l7.07-7.07l221.9,221.89c24.46,24.46,38.34,58.34,38.06,92.94l-2.7,338.9
					c-0.25,31.94,12.55,63.2,35.13,85.79l54.88,54.88L1840.08,2150.16z"/>
			</g>
		</g>
		<g>
			<g>
				<path class="st1" d="M1947.89,2180.21l-107.9-107.9c-24.46-24.46-38.34-58.34-38.06-92.94l2.7-338.9
					c0.25-31.94-12.55-63.2-35.13-85.79l-198.92-198.92l7.07-7.07l198.92,198.92c24.47,24.46,38.34,58.34,38.06,92.94l-2.7,338.9
					c-0.25,31.94,12.55,63.2,35.13,85.79l107.9,107.9L1947.89,2180.21z"/>
			</g>
		</g>
		<g>
			<g>
				<path class="st1" d="M2026.53,2181.09l-131.76-131.76c-24.47-24.47-38.34-58.34-38.06-92.94l2.7-338.9
					c0.25-31.94-12.55-63.2-35.13-85.79l-176.83-176.83l7.07-7.07l176.83,176.83c24.47,24.46,38.34,58.34,38.06,92.94l-2.7,338.9
					c-0.25,31.93,12.55,63.2,35.13,85.79l131.76,131.76L2026.53,2181.09z"/>
			</g>
		</g>
		<g>
			<g>
				<path class="st1" d="M2102.53,2179.32l-152.97-152.97c-24.46-24.46-38.34-58.34-38.06-92.94l2.7-338.9
					c0.25-31.93-12.55-63.2-35.13-85.79l-154.74-154.74l7.07-7.07l154.74,154.74c24.46,24.46,38.34,58.34,38.06,92.94l-2.7,338.9
					c-0.25,31.94,12.55,63.2,35.13,85.79l152.97,152.97L2102.53,2179.32z"/>
			</g>
		</g>
		<g>
			<g>
				<path class="st1" d="M2180.29,2179.32l-175.94-175.95c-24.47-24.46-38.34-58.34-38.06-92.94l2.7-338.9
					c0.25-31.94-12.55-63.2-35.13-85.79l-130-130l7.07-7.07l130,130c24.47,24.46,38.34,58.34,38.06,92.94l-2.7,338.9
					c-0.25,31.94,12.55,63.2,35.13,85.79l175.94,175.95L2180.29,2179.32z"/>
			</g>
		</g>
		<g>
			<g>
				<path class="st1" d="M2255.4,2176.67l-196.27-196.27c-24.46-24.47-38.34-58.34-38.06-92.94l2.7-338.9
					c0.25-31.94-12.55-63.2-35.13-85.79l7.07-7.07c24.47,24.46,38.34,58.34,38.06,92.94l-2.7,338.9
					c-0.25,31.93,12.55,63.2,35.13,85.79l196.27,196.27L2255.4,2176.67z"/>
			</g>
		</g>
	</g>
	<g style="clip-path:url(#SVGID_00000120531606040839137040000004183400657249537705_);">
		<g>
			<g>
				<path class="st1" d="M1451.28,2538.97l-54.88-54.88c-24.46-24.47-38.34-58.34-38.06-92.94l2.7-338.9
					c0.25-31.93-12.55-63.2-35.13-85.79L1104,1744.57l7.07-7.07l221.89,221.9c24.47,24.46,38.34,58.34,38.06,92.94l-2.7,338.9
					c-0.25,31.93,12.55,63.2,35.13,85.79l54.88,54.88L1451.28,2538.97z"/>
			</g>
		</g>
		<g>
			<g>
				<path class="st1" d="M1559.08,2569.01l-107.9-107.9c-24.47-24.46-38.34-58.34-38.06-92.94l2.7-338.9
					c0.25-31.94-12.55-63.2-35.13-85.79l-198.92-198.92l7.07-7.07l198.92,198.92c24.46,24.46,38.34,58.34,38.06,92.94l-2.7,338.9
					c-0.26,31.93,12.55,63.2,35.13,85.79l107.9,107.9L1559.08,2569.01z"/>
			</g>
		</g>
		<g>
			<g>
				<path class="st1" d="M1637.73,2569.9l-131.76-131.76c-24.46-24.46-38.34-58.34-38.06-92.94l2.7-338.9
					c0.25-31.93-12.55-63.2-35.13-85.79l-176.83-176.83l7.07-7.07l176.83,176.83c24.47,24.46,38.34,58.34,38.06,92.94l-2.7,338.9
					c-0.25,31.94,12.55,63.2,35.13,85.79l131.76,131.76L1637.73,2569.9z"/>
			</g>
		</g>
		<g>
			<g>
				<path class="st1" d="M1713.72,2568.13l-152.97-152.97c-24.47-24.47-38.34-58.34-38.06-92.94l2.7-338.9
					c0.25-31.93-12.55-63.2-35.13-85.79l-154.74-154.74l7.07-7.07l154.74,154.74c24.47,24.46,38.34,58.34,38.06,92.94l-2.7,338.9
					c-0.25,31.93,12.55,63.2,35.13,85.79l152.97,152.97L1713.72,2568.13z"/>
			</g>
		</g>
		<g>
			<g>
				<path class="st1" d="M1791.48,2568.13l-175.95-175.95c-24.47-24.46-38.34-58.34-38.06-92.94l2.7-338.9
					c0.25-31.94-12.55-63.2-35.13-85.79l-129.99-130l7.07-7.07l129.99,130c24.46,24.46,38.34,58.34,38.06,92.94l-2.7,338.9
					c-0.25,31.93,12.55,63.2,35.13,85.79l175.95,175.95L1791.48,2568.13z"/>
			</g>
		</g>
		<g>
			<g>
				<path class="st1" d="M1866.59,2565.48l-196.27-196.27c-24.46-24.46-38.34-58.34-38.06-92.94l2.7-338.9
					c0.25-31.94-12.55-63.2-35.13-85.79l7.07-7.07c24.46,24.46,38.34,58.34,38.06,92.94l-2.7,338.9
					c-0.25,31.94,12.55,63.2,35.13,85.79l196.27,196.27L1866.59,2565.48z"/>
			</g>
		</g>
	</g>
</g>
</svg>
